Coordinates
version=1
nRows=22
nColumns=24
inDegrees=yes

Units are S.I. units (second, meters, Newtons, ...)
Angles are in degrees.

endheader
time	pelvis_tilt	pelvis_list	pelvis_rotation	pelvis_tx	pelvis_ty	pelvis_tz	hip_flexion_r	hip_adduction_r	hip_rotation_r	knee_angle_r	ankle_angle_r	subtalar_angle_r	mtp_angle_r	hip_flexion_l	hip_adduction_l	hip_rotation_l	knee_angle_l	ankle_angle_l	subtalar_angle_l	mtp_angle_l	lumbar_extension	lumbar_bending	lumbar_rotation
      5.41500000	     -9.45266936	      4.72802546	      3.09349840	     -0.76989262	     -0.00510824	     -0.26617855	     28.02270715	    -11.11701829	    -11.62073122	    -65.56247484	     -2.92511468	     13.11380123	     -9.95429584	     12.41087021	     11.03203571	     10.80395518	    -12.12273502	      0.56221162	     -8.63042331	      3.36133281	      6.41562568	     -7.47439534	     -1.08833323
      5.42000000	     -9.33654205	      4.52502096	      3.31017876	     -0.76504295	     -0.00462128	     -0.26679112	     28.51546334	    -10.96008615	    -11.80096152	    -65.16602368	     -2.21114302	     13.17401193	     -9.96660685	     11.78390530	     10.84327918	     11.08597722	    -11.83147143	      0.76430838	     -8.52869055	      3.34295878	      6.21606737	     -7.27686416	     -1.44287842
      5.42500000	     -9.08678633	      4.41308322	      3.47838525	     -0.76012677	     -0.00405091	     -0.26731573	     28.87137387	    -10.87190273	    -11.91160270	    -64.82751366	     -0.76603642	     13.43017929	    -12.20453920	     10.95812906	     10.72140621	     11.36396516	    -11.45486895	      0.98878236	     -8.43475772	      3.01752649	      5.87725464	     -7.17464182	     -1.76007045
      5.43000000	     -9.02703840	      4.18870055	      3.71622667	     -0.75534492	     -0.00368533	     -0.26790391	     29.39062692	    -10.68686345	    -12.10586163	    -64.29750612	     -0.15935941	     13.44390673	    -12.15756173	     10.40416862	     10.49060093	     11.57927643	    -11.15593608	      1.20012014	     -8.21252919	      3.20000597	      5.73748165	     -6.96572510	     -2.14395527
      5.43500000	     -8.86591962	      4.01528929	      3.89687547	     -0.75054750	     -0.00327590	     -0.26841487	     29.79524064	    -10.51535599	    -12.21886107	    -63.72115429	      0.49089525	     13.52757268	    -12.20188812	      9.71735766	     10.28559166	     11.72860015	    -10.80308819	      1.38391527	     -8.00152648	      3.43695633	      5.48914360	     -6.79459005	     -2.46107432
      5.44000000	     -8.71266765	      3.84313714	      4.07354162	     -0.74574735	     -0.00289719	     -0.26891071	     30.18625270	    -10.33510307	    -12.31739382	    -63.08052284	      1.14837989	     13.63890815	    -12.30772528	      9.03937554	     10.07565039	     11.84606331	    -10.44130511	      1.52773104	     -7.80356541	      3.68582049	      5.25674174	     -6.62286410	     -2.75502632
      5.44500000	     -8.51454026	      3.69093632	      4.23077786	     -0.74099584	     -0.00255957	     -0.26931199	     30.52623542	    -10.14581279	    -12.37625375	    -62.40460762	      1.82655167	     13.73432474	    -12.59469929	      8.31473857	      9.86946133	     11.98047056	    -10.07651171	      1.69316512	     -7.60800165	      4.03168245	      4.96239005	     -6.47491919	     -3.04300919
      5.45000000	     -8.50758082	      3.56701078	      4.33820270	     -0.73622835	     -0.00247106	     -0.26970409	     31.08976247	     -9.96208592	    -12.32253113	    -61.69318070	      2.38023904	     13.88816406	    -12.55737776	      7.80303706	      9.70716950	     12.08914126	     -9.72466857	      1.83418443	     -7.50577933	      4.13282213	      4.90137369	     -6.34983600	     -3.22662691
      5.45500000	     -8.13659548	      3.38292029	      4.47588526	     -0.73134708	     -0.00197432	     -0.26999697	     31.16009306	     -9.70138469	    -12.40658707	    -60.86855343	      3.23398121	     14.00439228	    -13.55751555	      6.87449429	      9.43259377	     12.15332353	     -9.31606489	      1.92156374	     -7.33901856	      4.68149024	      4.44156033	     -6.15871440	     -3.45427432
      5.46000000	     -8.06497139	      3.28402862	      4.75162036	     -0.72667059	     -0.00192258	     -0.27051591	     31.56730492	     -9.63236383	    -12.49164935	    -60.06659015	      3.91979311	     14.29724296	    -13.80423241	      6.33741296	      9.31708941	     12.36263964	     -9.05766918	      2.07201501	     -7.19101904	      4.84578637	      4.26871658	     -6.09205648	     -3.88701310
      5.46500000	     -7.85480984	      3.13973679	      4.91998265	     -0.72184887	     -0.00171553	     -0.27085424	     31.79187205	     -9.43026399	    -12.51686234	    -59.15966064	      4.58311749	     14.53270029	    -14.23777343	      5.61693978	      9.11310743	     12.53320430	     -8.73542716	      2.23292119	     -7.11457617	      4.97018690	      3.98015832	     -5.94821368	     -4.15727672
      5.47000000	     -7.85419091	      3.03676855	      5.04090296	     -0.71709242	     -0.00183256	     -0.27111447	     32.27278785	     -9.24106795	    -12.41161689	    -58.23942655	      5.11964709	     14.79528319	    -14.27985783	      5.16753803	      8.97429074	     12.66338849	     -8.49576889	      2.41262237	     -7.09256690	      5.02682746	      3.91868739	     -5.85999475	     -4.33618229
      5.47500000	     -7.56088901	      2.90362109	      5.30329670	     -0.71230101	     -0.00158269	     -0.27147609	     32.32979416	     -9.09021400	    -12.51883500	    -57.21828382	      5.79993119	     15.08040989	    -14.88440599	      4.37213074	      8.77880822	     12.97673696	     -8.21492304	      2.56703669	     -7.04606990	      5.04350241	      3.51403753	     -5.74515499	     -4.75102040
      5.48000000	     -7.34648827	      2.78060496	      5.52374653	     -0.70743915	     -0.00147811	     -0.27180110	     32.46461034	     -8.92635471	    -12.54304354	    -56.18577565	      6.67587176	     15.49754211	    -16.03570922	      3.66929449	      8.60169575	     13.31190381	     -7.96306013	      2.72163488	     -7.12970848	      4.91203118	      3.22102459	     -5.63072717	     -5.06516214
      5.48500000	     -7.27992734	      2.71942610	      5.62011385	     -0.70254049	     -0.00165369	     -0.27196112	     32.81591104	     -8.75629025	    -12.38582488	    -55.27796563	      8.42312518	     15.98644435	    -20.17201446	      3.13224196	      8.50640943	     13.60577762	     -7.75534933	      2.98607631	     -7.34647314	      4.23410139	      3.10489563	     -5.58310738	     -5.22001407
      5.49000000	     -7.33075729	      2.63885121	      5.80570677	     -0.69779230	     -0.00194068	     -0.27215205	     33.24047677	     -8.61016103	    -12.26489208	    -54.15113335	      8.88018994	     16.38866601	    -20.13122994	      2.80372284	      8.39859190	     13.77491841	     -7.64734099	      3.18288658	     -7.28270419	      4.31951468	      3.08742934	     -5.54285983	     -5.45066781
      5.49500000	     -7.20692772	      2.49702129	      6.09235643	     -0.69300612	     -0.00198599	     -0.27241364	     33.38549076	     -8.45100928	    -12.31633498	    -52.91382952	      9.36988859	     16.74690636	    -20.37156236	      2.27247567	      8.20480927	     14.11171256	     -7.51771699	      3.36924922	     -7.26307923	      4.32014041	      2.87115693	     -5.44080441	     -5.86088139
      5.50000000	     -7.08454160	      2.35265247	      6.30850021	     -0.68814584	     -0.00206504	     -0.27261140	     33.51498325	     -8.24682178	    -12.29423336	    -51.63120437	      9.94010908	     17.13427880	    -20.91734508	      1.72655283	      8.00358202	     14.46646194	     -7.36573940	      3.53016365	     -7.39549595	      4.15148497	      2.67682928	     -5.32004741	     -6.14741921
      5.50500000	     -7.10474516	      2.29656632	      6.43151320	     -0.68329837	     -0.00240635	     -0.27274370	     33.85015673	     -8.09241133	    -12.08449640	    -50.49456633	     11.49080647	     17.61758509	    -24.88119865	      1.33448982	      7.92913012	     14.88675434	     -7.27803834	      3.86566314	     -7.64938440	      3.09784139	      2.63731782	     -5.28876350	     -6.32598597
      5.51000000	     -7.11701202	      2.16969271	      6.67399775	     -0.67854851	     -0.00267949	     -0.27290113	     34.08794939	     -7.92696716	    -12.02394120	    -49.12146749	     11.85965236	     17.99797216	    -24.99874156	      1.00858025	      7.75931629	     15.10147708	     -7.24120623	      4.06060827	     -7.55170050	      3.24550743	      2.56517215	     -5.20962382	     -6.65109780
      5.51500000	     -7.18556792	      2.04833941	      6.81144928	     -0.67375424	     -0.00305204	     -0.27297744	     34.38482023	     -7.70806354	    -11.83590407	    -47.70532108	     12.17598958	     18.36097027	    -25.08581878	      0.73476827	      7.60216363	     15.25758397	     -7.18864064	      4.22282577	     -7.58715541	      3.28784859	      2.57457343	     -5.11700842	     -6.81633911
      5.52000000	     -7.16497961	      1.86622280	      7.03405881	     -0.66892549	     -0.00326575	     -0.27306143	     34.50905737	     -7.46034424	    -11.77895318	    -46.18946789	     12.47818718	     18.56314308	    -25.45705132	      0.34957765	      7.35284576	     15.57155431	     -7.10120995	      4.38438638	     -7.61488831	      3.27550983	      2.48320934	     -4.97793477	     -7.13955489
